<svg width="412" height="244" viewBox="0 0 412 244" fill="none" xmlns="http://www.w3.org/2000/svg">
<path d="M147.04 243.073H410.404C410.734 243.077 411.063 243.051 411.388 242.995L286.829 27.2412C286.069 25.8975 284.966 24.7797 283.632 24.0019C282.298 23.2241 280.782 22.8143 279.238 22.8143C277.694 22.8143 276.178 23.2241 274.845 24.0019C273.511 24.7797 272.408 25.8975 271.648 27.2412L188.053 172.029L184.048 178.957L147.04 243.073Z" fill="#467599"/>
<path opacity="0.2" d="M147.042 243.07H236.958L192.816 178.957L189.641 174.338L188.052 172.03L184.047 178.957L147.042 243.07Z" fill="#467599"/>
<path d="M0.401001 243.073H228.189L184.048 178.957L180.871 174.338L123.352 90.7825C122.335 89.5061 121.061 88.4578 119.612 87.7057C118.164 86.9537 116.573 86.5146 114.944 86.4172C113.315 86.3198 111.683 86.5662 110.155 87.1403C108.628 87.7144 107.238 88.6034 106.076 89.7496C105.778 90.076 105.501 90.421 105.247 90.7825L0.401001 243.073Z" fill="#467599"/>
<path d="M172.082 78.3426C193.63 78.3426 211.097 60.8749 211.097 39.3275C211.097 17.7801 193.63 0.312439 172.082 0.312439C150.535 0.312439 133.067 17.7801 133.067 39.3275C133.067 60.8749 150.535 78.3426 172.082 78.3426Z" fill="#467599"/>
</svg>
