<!-- Generated by IcoMoon.io -->
<svg version="1.1" xmlns="http://www.w3.org/2000/svg" width="640" height="640" viewBox="0 0 640 640">
<title></title>
<g id="icomoon-ignore">
</g>
<path fill="#000" d="M192 256v224h256v-224c0-70.692-57.308-128-128-128s-128 57.308-128 128v0zM256.96 74.56c-0.509-3.032-0.8-6.526-0.8-10.088 0-35.346 28.654-64 64-64s64 28.654 64 64c0 3.562-0.291 7.055-0.851 10.459l0.051-0.371c75.547 26.972 128.64 97.908 128.64 181.244 0 0.069 0 0.138 0 0.206v-0.011 192l96 64v32h-576v-32l96-64v-192c0-0.025 0-0.054 0-0.084 0-83.455 53.246-154.474 127.618-180.939l1.342-0.416zM384 576c0 35.346-28.654 64-64 64s-64-28.654-64-64v0h128z"></path>
</svg>
