<!-- Generated by IcoMoon.io -->
<svg version="1.1" xmlns="http://www.w3.org/2000/svg" width="768" height="768" viewBox="0 0 768 768">
<title></title>
<g id="icomoon-ignore">
</g>
<path fill="#000" d="M384 64.5q-66 0-123.75 24.75t-102 69-69 102-24.75 123.75 24.75 123.75 69 102 102 69 123.75 24.75 123.75-24.75 102-69 69-102 24.75-123.75-24.75-123.75-69-102-102-69-123.75-24.75zM223.5 432q-19.5 0-33.75-14.25t-14.25-33.75 14.25-33.75 33.75-14.25q21 0 34.5 14.25t13.5 33.75-13.5 33.75-34.5 14.25zM384 432q-19.5 0-33.75-14.25t-14.25-33.75 14.25-33.75 33.75-14.25 33.75 14.25 14.25 33.75-14.25 33.75-33.75 14.25zM544.5 432q-21 0-34.5-14.25t-13.5-33.75 13.5-33.75 34.5-14.25q19.5 0 33.75 14.25t14.25 33.75-14.25 33.75-33.75 14.25z"></path>
</svg>
