<!-- Generated by IcoMoon.io -->
<svg version="1.1" xmlns="http://www.w3.org/2000/svg" width="768" height="768" viewBox="0 0 768 768">
<title></title>
<g id="icomoon-ignore">
</g>
<path fill="#000" d="M288 640h-128c-8.832 0-16.8-3.552-22.624-9.376s-9.376-13.792-9.376-22.624v-448c0-8.832 3.552-16.8 9.376-22.624s13.792-9.376 22.624-9.376h128c17.664 0 32-14.336 32-32s-14.336-32-32-32h-128c-26.496 0-50.56 10.784-67.872 28.128s-28.128 41.376-28.128 67.872v448c0 26.496 10.784 50.56 28.128 67.872s41.376 28.128 67.872 28.128h128c17.664 0 32-14.336 32-32s-14.336-32-32-32zM594.752 352h-306.752c-17.664 0-32 14.336-32 32s14.336 32 32 32h306.752l-105.376 105.376c-12.512 12.512-12.512 32.768 0 45.248s32.768 12.512 45.248 0l160-160c2.944-2.944 5.312-6.464 6.944-10.368 4.8-11.584 2.496-25.44-6.944-34.88l-160-160c-12.512-12.512-32.768-12.512-45.248 0s-12.512 32.768 0 45.248z"></path>
</svg>
