<!-- Generated by IcoMoon.io -->
<svg version="1.1" xmlns="http://www.w3.org/2000/svg" width="768" height="768" viewBox="0 0 768 768">
<title></title>
<g id="icomoon-ignore">
</g>
<path fill="#000" d="M576 672v-64c0-44.16-17.952-84.224-46.848-113.152s-68.992-46.848-113.152-46.848h-256c-44.16 0-84.224 17.952-113.152 46.848s-46.848 68.992-46.848 113.152v64c0 17.664 14.336 32 32 32s32-14.336 32-32v-64c0-26.528 10.72-50.464 28.128-67.872s41.344-28.128 67.872-28.128h256c26.528 0 50.464 10.72 67.872 28.128s28.128 41.344 28.128 67.872v64c0 17.664 14.336 32 32 32s32-14.336 32-32zM448 224c0-44.16-17.952-84.224-46.848-113.152s-68.992-46.848-113.152-46.848-84.224 17.952-113.152 46.848-46.848 68.992-46.848 113.152 17.952 84.224 46.848 113.152 68.992 46.848 113.152 46.848 84.224-17.952 113.152-46.848 46.848-68.992 46.848-113.152zM384 224c0 26.528-10.72 50.464-28.128 67.872s-41.344 28.128-67.872 28.128-50.464-10.72-67.872-28.128-28.128-41.344-28.128-67.872 10.72-50.464 28.128-67.872 41.344-28.128 67.872-28.128 50.464 10.72 67.872 28.128 28.128 41.344 28.128 67.872zM768 672v-64c-0.032-39.84-14.624-76.32-38.88-104.352-20.864-24.096-48.896-41.952-80.928-50.432-17.088-4.512-34.592 5.664-39.104 22.752s5.664 34.592 22.752 39.104c19.424 5.152 36.352 15.936 48.896 30.464 14.528 16.832 23.232 38.592 23.264 62.464v64c0 17.664 14.336 32 32 32s32-14.336 32-32zM504.064 131.168c25.696 6.592 46.24 22.88 58.784 44.064s16.992 47.040 10.4 72.736c-5.632 22.016-18.4 40.192-35.36 52.864-10.048 7.52-21.6 13.088-34.016 16.352-17.088 4.48-27.328 21.984-22.816 39.072s21.984 27.328 39.072 22.816c20.384-5.344 39.424-14.56 56.064-27.008 28.288-21.12 49.664-51.616 59.040-88.256 10.944-42.784 3.52-86.048-17.344-121.216s-55.2-62.496-97.984-73.472c-17.12-4.384-34.56 5.952-38.944 23.072s5.952 34.56 23.072 38.944z"></path>
</svg>
